<?xml version="1.0" standalone="no"?>
<!DOCTYPE svg PUBLIC "-//W3C//DTD SVG 20010904//EN"
 "http://www.w3.org/TR/2001/REC-SVG-20010904/DTD/svg10.dtd">
<svg version="1.0" xmlns="http://www.w3.org/2000/svg"
 width="64.000000pt" height="64.000000pt" viewBox="0 0 64.000000 64.000000"
 preserveAspectRatio="xMidYMid meet">

<g transform="translate(0.000000,64.000000) scale(0.100000,-0.100000)"
fill="#000000" stroke="none">
<path d="M132 510 c-44 -27 -75 -96 -66 -146 6 -35 57 -111 98 -146 46 -40
144 -108 155 -108 33 0 172 112 217 175 43 62 50 103 25 160 -35 80 -123 108
-204 65 l-38 -21 -33 21 c-43 26 -111 26 -154 0z m121 -11 c12 -6 32 -21 45
-32 l22 -20 23 20 c49 46 88 53 141 28 61 -29 82 -102 50 -171 -19 -39 -126
-141 -178 -169 -41 -22 -54 -18 -143 54 -84 69 -115 112 -121 169 -4 42 0 52
24 81 41 49 91 63 137 40z"/>
</g>
</svg>
