<svg id="svg" version="1.1" xmlns="http://www.w3.org/2000/svg" xmlns:xlink="http://www.w3.org/1999/xlink" width="400" height="400" viewBox="0, 0, 400,400"><g id="svgg"><path id="path0" d="M109.600 59.961 C 109.270 60.146,108.333 60.417,107.517 60.564 C 105.794 60.873,104.540 62.249,104.166 64.241 L 103.911 65.600 97.974 65.600 C 94.709 65.600,91.624 65.769,91.119 65.975 C 90.613 66.181,89.556 66.453,88.769 66.580 C 86.692 66.914,85.976 67.607,85.414 69.826 L 84.915 71.800 81.769 72.000 L 78.622 72.200 78.203 73.600 C 77.289 76.649,75.394 77.889,70.986 78.322 C 66.403 78.772,66.000 79.087,66.000 82.223 L 66.000 84.293 63.155 84.496 C 59.800 84.736,59.614 84.933,59.606 88.253 L 59.600 90.707 57.001 90.872 C 53.793 91.077,53.642 91.226,53.335 94.512 L 53.087 97.168 51.329 97.432 C 48.068 97.921,46.853 100.522,46.815 107.100 L 46.800 109.600 44.600 109.600 C 41.011 109.600,40.800 110.009,40.800 116.949 L 40.800 122.698 39.248 122.946 C 34.647 123.682,34.641 123.721,34.484 155.000 C 34.305 190.849,34.189 189.831,38.500 190.275 L 40.800 190.512 40.800 196.442 C 40.800 203.272,40.760 203.200,44.528 203.200 L 46.709 203.200 46.864 208.839 C 47.045 215.430,47.144 215.600,50.815 215.600 L 53.077 215.600 53.331 220.612 C 53.666 227.231,53.674 227.244,57.700 227.791 L 59.600 228.049 59.606 230.525 C 59.614 233.821,59.813 234.045,62.950 234.297 L 65.600 234.510 65.600 237.026 C 65.600 240.337,66.068 240.800,69.411 240.800 L 71.965 240.800 72.082 243.700 L 72.200 246.600 75.047 246.716 L 77.895 246.833 78.099 249.686 C 78.246 251.747,78.493 252.679,78.988 253.040 C 79.364 253.316,79.971 254.139,80.336 254.870 C 80.758 255.714,81.616 256.492,82.686 257.000 C 83.702 257.482,84.377 258.078,84.386 258.500 C 84.394 258.889,84.711 259.206,85.100 259.214 C 85.522 259.223,86.118 259.898,86.600 260.914 C 87.180 262.136,87.859 262.820,89.068 263.400 C 89.985 263.840,90.823 264.515,90.930 264.900 C 91.060 265.366,91.523 265.600,92.315 265.600 C 93.904 265.600,96.800 268.420,96.800 269.967 C 96.800 271.618,97.491 272.000,100.480 272.000 L 103.200 272.000 103.200 274.367 C 103.200 277.970,103.229 278.000,106.643 278.000 L 109.600 278.000 109.600 280.786 C 109.600 284.077,109.934 284.400,113.342 284.400 L 115.536 284.400 115.816 287.012 C 116.141 290.049,116.412 290.288,119.935 290.656 L 122.308 290.904 122.510 292.697 C 122.853 295.742,125.251 296.789,131.900 296.797 L 134.400 296.800 134.400 299.586 C 134.400 302.912,134.717 303.200,138.374 303.200 L 140.800 303.200 140.800 305.571 C 140.800 308.758,141.285 309.200,144.781 309.200 L 147.505 309.200 147.951 310.969 C 148.459 312.988,149.801 314.251,151.845 314.635 C 152.595 314.776,153.307 315.050,153.428 315.245 C 153.549 315.440,154.987 315.600,156.624 315.600 L 159.600 315.600 159.606 318.100 C 159.615 321.584,159.749 321.709,163.688 321.916 L 167.043 322.092 167.822 323.546 C 168.318 324.473,169.204 325.290,170.268 325.800 C 171.185 326.240,172.023 326.915,172.130 327.300 C 172.294 327.888,172.811 328.000,175.363 328.000 L 178.400 328.000 178.406 330.300 C 178.416 333.966,179.170 334.329,186.882 334.376 L 190.763 334.400 190.882 337.090 C 191.043 340.759,191.112 340.787,200.211 340.794 C 209.109 340.801,209.200 340.763,209.200 336.977 L 209.200 334.400 213.900 334.353 C 221.226 334.279,221.910 333.872,221.977 329.555 L 222.000 328.109 225.700 327.884 C 231.869 327.508,233.039 326.872,233.579 323.600 L 233.810 322.200 236.738 322.000 C 240.296 321.757,240.800 321.259,240.800 317.982 L 240.800 315.718 244.500 315.489 C 250.706 315.107,252.040 314.318,252.603 310.700 L 252.836 309.200 255.538 309.200 C 258.889 309.200,259.200 308.905,259.200 305.720 L 259.200 303.200 261.920 303.200 C 265.318 303.200,265.600 302.922,265.600 299.580 L 265.600 296.921 270.838 296.688 C 276.995 296.414,277.382 296.210,277.780 293.022 L 278.046 290.890 280.622 290.726 C 283.825 290.522,284.122 290.223,284.328 286.999 L 284.493 284.400 287.167 284.400 C 290.521 284.400,290.800 284.119,290.800 280.738 L 290.800 278.035 293.700 277.918 L 296.600 277.800 296.718 274.900 L 296.835 272.000 299.798 272.000 C 301.802 272.000,302.864 271.831,303.080 271.479 C 303.256 271.192,304.120 270.694,305.000 270.373 C 306.250 269.916,306.795 269.395,307.490 267.994 C 308.755 265.443,309.189 265.017,311.082 264.467 C 313.230 263.843,313.912 263.141,314.499 260.945 C 314.871 259.556,315.193 259.123,315.987 258.946 C 319.782 258.099,320.058 257.960,320.630 256.589 C 320.944 255.839,321.200 254.770,321.200 254.213 C 321.200 253.656,321.380 253.200,321.600 253.200 C 321.820 253.200,322.000 252.855,322.000 252.433 C 322.000 251.944,322.543 251.401,323.500 250.933 C 324.518 250.435,325.257 249.664,325.800 248.532 C 326.240 247.615,326.915 246.777,327.300 246.670 C 327.883 246.508,328.000 245.999,328.000 243.637 L 328.000 240.800 330.720 240.800 C 334.129 240.800,334.400 240.529,334.400 237.120 L 334.400 234.400 336.800 234.400 C 340.055 234.400,340.800 233.664,340.800 230.452 L 340.800 228.103 343.164 227.836 C 346.407 227.469,346.508 227.274,346.721 221.017 L 346.901 215.685 349.629 215.530 C 353.153 215.331,352.979 215.657,353.130 208.968 L 353.259 203.200 355.781 203.200 C 359.146 203.200,359.157 203.177,359.289 196.373 L 359.400 190.600 360.600 190.497 C 362.748 190.313,364.710 189.608,365.053 188.896 C 365.543 187.881,365.726 131.366,365.252 127.449 C 364.774 123.490,363.851 122.400,360.978 122.400 L 359.200 122.400 359.200 116.629 C 359.200 109.739,359.128 109.600,355.571 109.600 L 353.200 109.600 353.192 107.100 C 353.169 99.896,352.224 97.731,348.930 97.341 L 346.902 97.101 346.691 94.474 C 346.437 91.309,345.915 90.800,342.924 90.800 L 340.800 90.800 340.798 89.300 C 340.792 85.290,339.915 84.400,335.970 84.400 L 334.440 84.400 334.165 81.974 C 333.801 78.751,333.550 78.570,329.045 78.274 C 325.073 78.013,322.000 76.225,322.000 74.174 C 322.000 72.384,321.299 72.000,318.030 72.000 L 314.889 72.000 314.634 70.641 C 313.953 67.009,311.329 65.931,302.412 65.617 L 296.224 65.400 295.898 63.750 C 295.112 59.763,294.150 59.614,269.189 59.606 C 245.750 59.599,247.200 59.360,247.200 63.223 L 247.200 65.600 238.826 65.600 C 229.021 65.600,228.400 65.739,228.400 67.940 C 228.400 68.798,228.288 70.063,228.150 70.750 L 227.900 72.000 222.450 72.006 C 215.923 72.013,215.973 71.989,215.708 75.296 L 215.499 77.892 212.675 78.129 C 210.728 78.292,209.743 78.558,209.504 78.986 C 209.313 79.327,208.428 79.978,207.536 80.433 C 206.403 81.011,205.717 81.723,205.258 82.800 C 204.508 84.555,203.831 84.800,199.724 84.800 C 196.612 84.800,195.782 84.411,195.460 82.802 C 195.189 81.443,193.445 79.600,192.431 79.600 C 192.072 79.600,191.356 79.304,190.840 78.943 C 190.294 78.561,188.773 78.205,187.202 78.093 L 184.501 77.900 184.293 75.299 C 184.027 71.989,184.078 72.013,177.547 72.006 L 172.093 72.000 171.928 69.401 C 171.694 65.736,171.882 65.820,163.603 65.675 L 156.444 65.550 154.822 63.928 C 153.930 63.036,153.200 62.057,153.200 61.753 C 153.200 59.589,153.308 59.599,130.900 59.612 C 119.515 59.619,109.930 59.776,109.600 59.961 M142.400 80.006 C 148.122 80.503,150.741 81.298,152.909 83.195 C 154.609 84.682,156.066 85.172,162.450 86.402 C 165.088 86.911,168.218 88.763,168.875 90.205 C 169.133 90.772,169.792 91.319,170.369 91.446 C 174.448 92.341,176.189 93.442,177.181 95.756 C 177.800 97.200,178.124 97.467,179.795 97.914 C 181.960 98.493,183.681 100.090,184.240 102.040 C 184.506 102.969,184.951 103.448,185.806 103.726 C 187.974 104.431,189.157 105.570,189.891 107.660 C 190.451 109.254,190.908 109.837,192.062 110.429 C 193.744 111.290,195.109 112.870,195.462 114.365 C 196.341 118.077,204.078 117.982,204.967 114.249 C 205.273 112.963,206.821 111.323,208.630 110.368 C 209.447 109.937,210.004 109.200,210.384 108.047 C 211.020 106.121,212.989 104.198,214.713 103.819 C 215.632 103.617,215.982 103.239,216.333 102.064 C 216.910 100.139,218.611 98.523,220.720 97.896 C 222.108 97.483,222.608 97.031,223.696 95.203 C 224.979 93.049,225.067 92.988,228.233 92.038 C 230.755 91.280,231.594 90.837,232.069 90.008 C 233.346 87.784,235.752 86.869,245.400 84.937 C 246.060 84.805,247.243 84.085,248.028 83.337 C 251.226 80.293,258.233 79.322,274.000 79.738 C 286.522 80.069,290.201 80.821,292.469 83.517 C 293.590 84.849,293.975 84.980,299.695 85.974 C 304.716 86.847,306.258 87.624,307.530 89.920 C 308.136 91.016,308.736 91.600,309.253 91.600 C 311.700 91.600,313.784 92.589,316.129 94.862 C 317.456 96.148,318.605 97.200,318.684 97.200 C 319.241 97.200,324.800 101.379,324.800 101.797 C 324.800 102.087,325.441 103.106,326.225 104.062 C 328.142 106.402,328.420 106.700,330.744 108.929 C 332.606 110.714,333.538 112.419,334.173 115.200 C 334.327 115.872,334.951 116.462,336.080 117.000 C 338.106 117.966,338.814 119.254,340.039 124.200 C 340.765 127.132,341.170 128.023,342.224 129.000 C 344.730 131.323,345.230 133.333,346.008 144.200 C 347.017 158.304,347.009 158.916,345.554 175.749 C 345.047 181.619,344.053 185.018,342.377 186.616 C 340.871 188.051,340.172 189.628,339.589 192.912 C 338.941 196.557,337.513 199.442,335.880 200.406 C 334.494 201.224,333.699 202.655,332.818 205.924 C 332.563 206.872,331.977 207.952,331.516 208.324 C 328.965 210.384,328.226 211.368,326.397 215.137 C 324.747 218.535,324.174 219.355,323.186 219.728 C 322.089 220.142,320.400 222.645,320.400 223.857 C 320.400 224.500,318.487 226.123,316.699 226.997 C 315.322 227.670,314.972 228.095,314.539 229.620 C 313.934 231.751,312.678 233.062,310.538 233.795 C 309.169 234.263,308.956 234.520,308.600 236.131 C 308.113 238.335,306.752 239.863,304.735 240.467 C 303.553 240.821,303.127 241.208,302.787 242.240 C 302.218 243.963,299.992 245.890,298.177 246.231 C 297.368 246.383,296.651 246.786,296.541 247.151 C 295.691 249.980,294.790 251.147,292.686 252.142 C 290.822 253.024,290.426 253.418,289.829 254.979 C 289.047 257.028,287.559 258.400,286.120 258.400 C 284.944 258.400,283.600 259.069,283.600 259.654 C 283.600 261.502,280.665 264.363,278.716 264.413 C 278.095 264.429,276.400 265.789,276.400 266.271 C 276.400 267.360,274.217 269.596,272.183 270.591 C 270.682 271.325,269.641 272.163,269.108 273.065 C 268.666 273.816,267.740 274.697,267.052 275.023 C 262.904 276.990,260.122 278.797,259.332 280.037 C 257.952 282.203,256.798 283.165,255.245 283.443 C 253.159 283.818,252.806 284.086,251.828 286.042 C 250.960 287.780,249.940 288.520,246.887 289.630 C 246.165 289.893,244.725 291.006,243.687 292.103 C 241.850 294.045,237.789 296.399,236.274 296.400 C 235.207 296.400,234.000 297.143,234.000 297.800 C 234.000 298.722,231.687 301.091,230.496 301.390 C 227.675 302.097,225.787 303.236,225.000 304.706 C 224.077 306.429,220.656 308.400,218.588 308.400 C 216.468 308.400,214.917 309.151,214.386 310.434 C 213.792 311.867,211.925 313.504,210.469 313.867 C 208.558 314.343,205.546 315.902,204.383 317.016 C 202.774 318.558,197.211 318.358,195.791 316.708 C 195.310 316.148,194.485 315.562,193.958 315.404 C 193.431 315.246,192.640 314.893,192.200 314.619 C 191.760 314.345,190.734 313.903,189.920 313.636 C 188.421 313.145,186.000 310.807,186.000 309.850 C 186.000 309.166,184.280 308.400,182.742 308.400 C 180.907 308.400,178.894 307.277,176.577 304.960 C 175.046 303.428,173.821 302.636,171.948 301.964 C 168.450 300.709,167.793 300.222,166.830 298.175 C 166.293 297.033,165.737 296.400,165.269 296.400 C 163.417 296.400,160.743 295.026,158.578 292.962 C 157.316 291.759,154.843 290.016,153.081 289.088 C 150.533 287.744,149.701 287.074,149.008 285.800 C 148.264 284.434,147.770 284.073,145.637 283.333 C 142.722 282.323,141.740 281.548,141.397 279.986 C 141.099 278.630,140.753 278.342,138.360 277.459 C 137.348 277.085,136.102 276.334,135.591 275.790 C 135.079 275.245,134.435 274.800,134.159 274.800 C 133.884 274.800,133.150 274.202,132.529 273.471 C 131.408 272.152,129.733 270.999,126.644 269.422 C 125.545 268.861,124.941 268.242,124.744 267.474 C 124.313 265.795,123.653 265.190,120.902 263.956 C 118.855 263.037,118.280 262.561,117.718 261.318 C 116.713 259.095,116.010 258.400,114.769 258.400 C 113.230 258.400,111.366 256.700,110.700 254.690 C 110.239 253.298,109.820 252.846,108.321 252.128 C 106.283 251.151,104.853 249.567,104.524 247.920 C 104.263 246.614,103.811 246.207,102.200 245.828 C 100.286 245.378,99.275 244.521,98.233 242.465 C 97.432 240.884,96.978 240.460,95.667 240.067 C 93.637 239.459,91.600 237.207,91.600 235.572 C 91.600 234.542,91.359 234.268,89.900 233.638 C 87.776 232.721,86.884 231.735,85.830 229.138 C 85.187 227.555,84.719 226.993,83.752 226.647 C 81.902 225.984,80.441 224.642,79.931 223.136 C 79.341 221.398,78.079 219.600,77.448 219.600 C 76.767 219.600,74.800 217.495,74.800 216.767 C 74.800 216.443,74.513 215.769,74.163 215.269 C 73.813 214.768,73.202 213.423,72.806 212.280 C 72.291 210.793,71.702 209.951,70.743 209.326 C 68.534 207.889,68.068 207.328,67.581 205.523 C 66.800 202.624,65.922 200.829,65.168 200.590 C 63.145 199.948,61.583 196.831,60.410 191.091 C 60.089 189.516,59.558 188.372,58.740 187.491 C 56.284 184.847,55.437 182.347,54.843 176.000 C 53.648 163.234,53.461 158.015,53.949 151.096 C 55.195 133.439,55.497 131.781,57.959 129.062 C 59.121 127.778,59.676 126.626,60.397 124.000 C 61.706 119.230,62.520 117.759,64.375 116.813 C 65.736 116.118,66.025 115.716,66.607 113.707 C 67.157 111.812,67.679 111.027,69.538 109.307 C 72.210 106.835,72.072 106.977,73.504 105.200 C 74.124 104.430,74.838 103.322,75.090 102.738 C 75.342 102.154,76.016 101.344,76.588 100.938 C 77.160 100.532,78.296 99.689,79.114 99.064 C 79.931 98.439,81.147 97.699,81.816 97.419 C 82.485 97.139,83.794 96.001,84.724 94.890 C 86.417 92.869,88.857 91.600,91.052 91.600 C 91.676 91.600,92.339 91.051,93.163 89.854 C 94.899 87.330,95.802 86.971,104.400 85.384 C 107.138 84.878,107.945 84.562,108.545 83.762 C 109.389 82.636,112.311 81.052,114.400 80.587 C 118.238 79.734,135.211 79.382,142.400 80.006 " stroke="none" fill="#0d3a64" fill-rule="evenodd"></path><path id="path1" d="M125.600 89.879 C 124.390 89.951,119.582 90.171,114.917 90.369 L 106.433 90.729 105.117 91.962 C 104.392 92.641,103.677 93.197,103.527 93.198 C 103.377 93.199,103.134 93.576,102.988 94.037 C 102.646 95.115,100.958 95.797,97.100 96.414 C 95.395 96.687,94.000 97.049,94.000 97.219 C 94.000 98.644,89.229 102.443,86.894 102.877 C 84.476 103.327,84.403 103.377,84.152 104.770 C 83.616 107.733,83.061 108.295,80.308 108.664 L 77.800 109.000 77.552 111.028 C 77.153 114.299,76.192 115.327,73.200 115.681 C 72.290 115.789,72.176 116.021,71.930 118.245 C 71.320 123.776,70.374 125.644,67.668 126.659 C 65.262 127.561,65.215 127.648,65.198 131.200 C 65.165 138.320,63.800 142.341,60.740 144.332 L 59.308 145.264 59.024 151.987 C 58.867 155.685,58.869 161.267,59.028 164.392 L 59.316 170.074 60.719 171.437 C 61.491 172.187,62.260 172.800,62.429 172.800 C 63.790 172.800,64.540 175.848,65.448 185.077 C 65.618 186.808,65.841 187.275,66.785 187.877 C 68.721 189.112,71.090 192.652,71.375 194.736 C 71.878 198.411,72.026 198.791,73.048 199.048 C 74.914 199.516,77.290 204.034,77.807 208.100 C 77.988 209.520,78.220 210.001,78.725 210.002 C 81.725 210.012,83.014 211.175,83.764 214.549 C 84.004 215.629,84.470 216.646,84.800 216.808 C 85.130 216.970,86.077 217.393,86.904 217.747 C 87.980 218.208,88.591 218.820,89.049 219.896 C 90.570 223.472,90.926 223.979,92.208 224.403 C 93.686 224.890,94.574 225.770,95.002 227.169 C 95.165 227.702,95.636 228.501,96.049 228.945 C 96.462 229.388,96.800 229.946,96.800 230.184 C 96.800 230.423,97.412 230.947,98.159 231.350 C 98.907 231.753,99.847 232.693,100.250 233.441 C 100.653 234.188,101.181 234.800,101.425 234.800 C 101.668 234.800,102.322 235.295,102.878 235.900 C 103.434 236.505,104.452 237.306,105.141 237.679 C 105.830 238.053,106.698 238.998,107.071 239.779 C 107.443 240.561,107.882 241.200,108.046 241.200 C 108.209 241.200,108.587 241.425,108.884 241.700 C 109.182 241.975,110.140 242.560,111.012 243.001 C 112.029 243.513,112.887 244.360,113.399 245.355 C 114.396 247.290,115.696 248.654,116.887 249.014 C 118.231 249.420,119.926 251.155,120.201 252.404 C 120.432 253.456,120.789 253.707,124.400 255.358 C 124.951 255.610,125.860 256.710,126.424 257.807 C 127.332 259.574,127.655 259.852,129.266 260.255 C 132.510 261.066,132.735 261.298,133.854 264.996 C 134.180 266.073,134.433 266.222,136.408 266.506 C 139.206 266.908,140.412 268.034,140.691 270.507 L 140.894 272.307 142.824 272.493 C 143.886 272.595,145.240 273.021,145.833 273.439 C 146.995 274.259,147.850 274.766,148.800 275.201 C 149.130 275.352,149.812 276.080,150.316 276.820 C 151.294 278.256,152.466 278.901,154.945 279.364 C 157.120 279.771,158.400 281.169,158.400 283.139 C 158.400 284.804,158.828 285.200,160.625 285.200 C 163.252 285.200,165.600 287.067,165.600 289.157 C 165.600 290.131,166.855 291.200,167.999 291.200 C 172.683 291.200,176.129 292.947,176.658 295.588 C 176.925 296.925,177.800 297.599,179.274 297.602 C 180.694 297.606,183.114 298.365,183.687 298.988 C 187.542 303.179,187.961 303.492,190.476 304.047 C 193.760 304.773,195.155 305.778,195.964 308.000 L 196.620 309.800 199.605 309.919 C 203.698 310.083,204.181 309.909,204.731 308.074 C 205.496 305.519,209.319 303.600,213.642 303.600 C 215.334 303.600,215.797 303.149,216.156 301.155 C 216.513 299.170,217.432 298.477,220.581 297.818 C 222.065 297.508,223.320 297.196,223.369 297.127 C 223.418 297.057,223.782 296.127,224.178 295.059 C 225.063 292.671,226.278 292.056,231.300 291.453 C 234.480 291.072,234.800 290.955,234.800 290.176 C 234.800 287.409,235.989 286.173,239.400 285.396 C 241.229 284.979,241.451 284.800,242.002 283.310 C 242.890 280.906,243.658 280.268,246.974 279.182 C 249.026 278.510,250.122 277.920,250.447 277.312 C 251.315 275.690,255.135 273.186,257.451 272.721 C 259.550 272.300,259.615 272.246,259.858 270.730 C 260.303 267.946,261.217 267.238,265.648 266.246 C 266.507 266.053,266.743 265.717,266.957 264.378 C 267.285 262.325,268.687 260.891,270.678 260.573 C 272.661 260.256,273.298 259.761,274.334 257.730 C 274.997 256.430,275.692 255.812,277.490 254.922 C 279.251 254.050,280.017 253.379,280.733 252.080 C 281.295 251.061,282.258 250.072,283.135 249.612 C 283.941 249.189,285.178 248.249,285.883 247.522 C 289.976 243.307,292.303 241.200,292.865 241.200 C 293.327 241.200,296.843 237.618,297.381 236.600 C 297.613 236.160,298.365 235.530,299.051 235.200 C 299.736 234.870,300.582 234.105,300.930 233.500 C 301.278 232.895,302.021 232.191,302.581 231.936 C 303.142 231.680,303.600 231.144,303.600 230.743 C 303.600 230.342,304.056 229.516,304.614 228.907 C 305.172 228.298,305.986 227.204,306.423 226.476 C 306.860 225.748,307.715 224.979,308.323 224.767 C 309.385 224.397,309.865 223.685,311.337 220.297 C 311.990 218.794,314.009 217.204,315.269 217.201 C 315.932 217.200,316.460 216.014,317.002 213.305 C 317.324 211.698,318.733 210.549,320.813 210.198 C 322.495 209.914,322.524 209.865,322.954 206.667 C 323.130 205.363,323.999 203.054,325.149 200.836 C 325.310 200.526,326.033 199.956,326.756 199.568 C 328.482 198.642,328.304 198.971,328.977 195.455 C 329.552 192.448,329.643 192.288,332.185 189.771 L 334.801 187.180 335.219 182.290 C 335.850 174.906,335.910 174.760,339.693 171.345 L 341.084 170.090 341.371 164.069 C 341.528 160.757,341.529 155.088,341.373 151.471 L 341.089 144.895 339.759 144.261 C 336.931 142.913,335.771 139.977,335.388 133.200 C 335.057 127.347,335.082 127.416,333.056 126.643 C 330.238 125.567,328.400 121.809,328.400 117.127 C 328.400 115.776,328.288 115.600,327.426 115.600 C 324.799 115.600,323.317 114.085,322.867 110.936 L 322.593 109.022 320.304 108.611 C 317.512 108.110,316.772 107.421,316.507 105.075 C 316.290 103.149,315.846 102.817,313.474 102.805 C 311.582 102.796,309.093 100.867,306.959 97.755 C 306.523 97.118,305.617 96.782,303.290 96.393 C 299.160 95.703,298.954 95.605,296.297 93.065 C 293.589 90.476,294.671 90.668,278.800 89.964 C 271.279 89.630,266.732 89.628,261.487 89.956 C 257.574 90.200,252.872 90.400,251.037 90.400 C 246.223 90.400,245.507 90.614,244.586 92.327 C 243.325 94.671,241.166 95.607,234.743 96.596 C 233.475 96.791,233.253 96.993,233.038 98.140 C 232.741 99.722,231.054 101.434,229.400 101.831 C 228.740 101.990,227.845 102.363,227.411 102.660 C 226.977 102.957,226.298 103.200,225.901 103.200 C 225.505 103.200,225.014 103.638,224.810 104.173 C 224.607 104.708,223.891 105.552,223.220 106.048 C 222.549 106.545,222.000 107.195,222.000 107.495 C 222.000 107.794,221.325 108.354,220.500 108.740 C 218.972 109.454,215.600 112.474,215.600 113.129 C 215.600 113.922,213.235 118.642,212.541 119.232 C 211.732 119.921,207.540 122.000,206.960 122.000 C 206.762 122.000,206.097 122.630,205.483 123.400 L 204.366 124.800 200.224 124.800 L 196.083 124.800 194.854 123.400 C 194.178 122.630,193.456 122.000,193.249 122.000 C 192.701 122.000,188.724 119.953,187.859 119.225 C 187.130 118.612,184.803 113.914,184.797 113.045 C 184.792 112.328,181.517 109.384,180.095 108.818 C 179.298 108.501,178.698 107.931,178.553 107.354 C 178.321 106.430,175.404 103.200,174.801 103.200 C 172.716 103.200,168.208 100.041,167.581 98.141 C 167.294 97.274,166.830 96.742,166.269 96.636 C 165.791 96.546,164.280 96.288,162.910 96.062 C 160.097 95.599,157.259 93.901,156.144 92.013 C 155.557 91.019,155.140 90.809,153.425 90.642 C 150.440 90.351,131.262 89.573,129.400 89.667 C 128.520 89.712,126.810 89.807,125.600 89.879 " stroke="none" fill="#fc044c" fill-rule="evenodd"></path><path id="path2" d="M120.400 80.001 C 113.646 80.405,110.254 81.481,108.545 83.762 C 107.945 84.562,107.138 84.878,104.400 85.384 C 95.802 86.971,94.899 87.330,93.163 89.854 C 92.339 91.051,91.676 91.600,91.052 91.600 C 88.857 91.600,86.417 92.869,84.724 94.890 C 83.794 96.001,82.485 97.139,81.816 97.419 C 81.147 97.699,79.931 98.439,79.114 99.064 C 78.296 99.689,77.160 100.532,76.588 100.938 C 76.016 101.344,75.342 102.154,75.090 102.738 C 74.838 103.322,74.124 104.430,73.504 105.200 C 72.072 106.977,72.210 106.835,69.538 109.307 C 67.679 111.027,67.157 111.812,66.607 113.707 C 66.025 115.716,65.736 116.118,64.375 116.813 C 62.520 117.759,61.706 119.230,60.397 124.000 C 59.676 126.626,59.121 127.778,57.959 129.062 C 55.497 131.781,55.195 133.439,53.949 151.096 C 53.461 158.015,53.648 163.234,54.843 176.000 C 55.437 182.347,56.284 184.847,58.740 187.491 C 59.558 188.372,60.089 189.516,60.410 191.091 C 61.583 196.831,63.145 199.948,65.168 200.590 C 65.922 200.829,66.800 202.624,67.581 205.523 C 68.068 207.328,68.534 207.889,70.743 209.326 C 71.702 209.951,72.291 210.793,72.806 212.280 C 73.202 213.423,73.813 214.768,74.163 215.269 C 74.513 215.769,74.800 216.443,74.800 216.767 C 74.800 217.495,76.767 219.600,77.448 219.600 C 78.079 219.600,79.341 221.398,79.931 223.136 C 80.441 224.642,81.902 225.984,83.752 226.647 C 84.719 226.993,85.187 227.555,85.830 229.138 C 86.884 231.735,87.776 232.721,89.900 233.638 C 91.359 234.268,91.600 234.542,91.600 235.572 C 91.600 237.207,93.637 239.459,95.667 240.067 C 96.978 240.460,97.432 240.884,98.233 242.465 C 99.275 244.521,100.286 245.378,102.200 245.828 C 103.811 246.207,104.263 246.614,104.524 247.920 C 104.853 249.567,106.283 251.151,108.321 252.128 C 109.820 252.846,110.239 253.298,110.700 254.690 C 111.366 256.700,113.230 258.400,114.769 258.400 C 116.010 258.400,116.713 259.095,117.718 261.318 C 118.280 262.561,118.855 263.037,120.902 263.956 C 123.653 265.190,124.313 265.795,124.744 267.474 C 124.941 268.242,125.545 268.861,126.644 269.422 C 129.733 270.999,131.408 272.152,132.529 273.471 C 133.150 274.202,133.884 274.800,134.159 274.800 C 134.435 274.800,135.079 275.245,135.591 275.790 C 136.102 276.334,137.348 277.085,138.360 277.459 C 140.753 278.342,141.099 278.630,141.397 279.986 C 141.740 281.548,142.722 282.323,145.637 283.333 C 147.770 284.073,148.264 284.434,149.008 285.800 C 149.701 287.074,150.533 287.744,153.081 289.088 C 154.843 290.016,157.316 291.759,158.578 292.962 C 160.743 295.026,163.417 296.400,165.269 296.400 C 165.737 296.400,166.293 297.033,166.830 298.175 C 167.793 300.222,168.450 300.709,171.948 301.964 C 173.821 302.636,175.046 303.428,176.577 304.960 C 178.894 307.277,180.907 308.400,182.742 308.400 C 184.280 308.400,186.000 309.166,186.000 309.850 C 186.000 310.807,188.421 313.145,189.920 313.636 C 190.734 313.903,191.760 314.345,192.200 314.619 C 192.640 314.893,193.431 315.246,193.958 315.404 C 194.485 315.562,195.310 316.148,195.791 316.708 C 197.211 318.358,202.774 318.558,204.383 317.016 C 205.546 315.902,208.558 314.343,210.469 313.867 C 211.925 313.504,213.792 311.867,214.386 310.434 C 214.917 309.151,216.468 308.400,218.588 308.400 C 220.656 308.400,224.077 306.429,225.000 304.706 C 225.787 303.236,227.675 302.097,230.496 301.390 C 231.687 301.091,234.000 298.722,234.000 297.800 C 234.000 297.143,235.207 296.400,236.274 296.400 C 237.789 296.399,241.850 294.045,243.687 292.103 C 244.725 291.006,246.165 289.893,246.887 289.630 C 249.940 288.520,250.960 287.780,251.828 286.042 C 252.806 284.086,253.159 283.818,255.245 283.443 C 256.798 283.165,257.952 282.203,259.332 280.037 C 260.122 278.797,262.904 276.990,267.052 275.023 C 267.740 274.697,268.666 273.816,269.108 273.065 C 269.641 272.163,270.682 271.325,272.183 270.591 C 274.217 269.596,276.400 267.360,276.400 266.271 C 276.400 265.789,278.095 264.429,278.716 264.413 C 280.665 264.363,283.600 261.502,283.600 259.654 C 283.600 259.069,284.944 258.400,286.120 258.400 C 287.559 258.400,289.047 257.028,289.829 254.979 C 290.426 253.418,290.822 253.024,292.686 252.142 C 294.790 251.147,295.691 249.980,296.541 247.151 C 296.651 246.786,297.368 246.383,298.177 246.231 C 299.992 245.890,302.218 243.963,302.787 242.240 C 303.127 241.208,303.553 240.821,304.735 240.467 C 306.752 239.863,308.113 238.335,308.600 236.131 C 308.956 234.520,309.169 234.263,310.538 233.795 C 312.678 233.062,313.934 231.751,314.539 229.620 C 314.972 228.095,315.322 227.670,316.699 226.997 C 318.487 226.123,320.400 224.500,320.400 223.857 C 320.400 222.645,322.089 220.142,323.186 219.728 C 324.174 219.355,324.747 218.535,326.397 215.137 C 328.226 211.368,328.965 210.384,331.516 208.324 C 331.977 207.952,332.563 206.872,332.818 205.924 C 333.699 202.655,334.494 201.224,335.880 200.406 C 337.513 199.442,338.941 196.557,339.589 192.912 C 340.172 189.628,340.871 188.051,342.377 186.616 C 344.053 185.018,345.047 181.619,345.554 175.749 C 347.009 158.916,347.017 158.304,346.008 144.200 C 345.230 133.333,344.730 131.323,342.224 129.000 C 341.170 128.023,340.765 127.132,340.039 124.200 C 338.814 119.254,338.106 117.966,336.080 117.000 C 334.951 116.462,334.327 115.872,334.173 115.200 C 333.538 112.419,332.606 110.714,330.744 108.929 C 328.420 106.700,328.142 106.402,326.225 104.062 C 325.441 103.106,324.800 102.087,324.800 101.797 C 324.800 101.379,319.241 97.200,318.684 97.200 C 318.605 97.200,317.456 96.148,316.129 94.862 C 313.784 92.589,311.700 91.600,309.253 91.600 C 308.736 91.600,308.136 91.016,307.530 89.920 C 306.258 87.624,304.716 86.847,299.695 85.974 C 293.975 84.980,293.590 84.849,292.469 83.517 C 287.927 78.120,253.655 77.981,248.028 83.337 C 247.243 84.085,246.060 84.805,245.400 84.937 C 235.752 86.869,233.346 87.784,232.069 90.008 C 231.594 90.837,230.755 91.280,228.233 92.038 C 225.067 92.988,224.979 93.049,223.696 95.203 C 222.608 97.031,222.108 97.483,220.720 97.896 C 218.611 98.523,216.910 100.139,216.333 102.064 C 215.982 103.239,215.632 103.617,214.713 103.819 C 212.989 104.198,211.020 106.121,210.384 108.047 C 210.004 109.200,209.447 109.937,208.630 110.368 C 206.821 111.323,205.273 112.963,204.967 114.249 C 204.078 117.982,196.341 118.077,195.462 114.365 C 195.109 112.870,193.744 111.290,192.062 110.429 C 190.908 109.837,190.451 109.254,189.891 107.660 C 189.157 105.570,187.974 104.431,185.806 103.726 C 184.951 103.448,184.506 102.969,184.240 102.040 C 183.681 100.090,181.960 98.493,179.795 97.914 C 178.124 97.467,177.800 97.200,177.181 95.756 C 176.189 93.442,174.448 92.341,170.369 91.446 C 169.792 91.319,169.133 90.772,168.875 90.205 C 168.218 88.763,165.088 86.911,162.450 86.402 C 156.066 85.172,154.609 84.682,152.909 83.195 C 149.239 79.983,138.424 78.920,120.400 80.001 M143.976 82.982 C 145.393 83.356,147.267 84.026,148.141 84.472 C 149.014 84.918,152.136 85.894,155.078 86.641 C 161.483 88.269,162.624 88.719,164.482 90.350 C 165.265 91.037,166.094 91.600,166.325 91.600 C 167.641 91.600,174.434 95.236,174.770 96.121 C 175.174 97.185,176.423 98.261,179.282 100.009 C 180.318 100.642,181.617 101.876,182.169 102.752 C 182.722 103.627,183.655 104.671,184.244 105.072 C 185.918 106.212,188.400 108.629,188.400 109.119 C 188.400 109.363,189.400 110.606,190.622 111.882 C 191.844 113.157,193.097 114.674,193.407 115.252 C 195.982 120.057,203.879 119.840,207.284 114.870 C 207.989 113.841,208.963 112.684,209.450 112.297 C 209.936 111.910,211.168 110.425,212.187 108.997 C 213.207 107.569,214.231 106.400,214.464 106.400 C 214.696 106.400,216.361 104.915,218.163 103.100 C 219.965 101.285,222.195 99.359,223.120 98.820 C 224.044 98.280,224.800 97.639,224.800 97.394 C 224.800 96.232,232.535 91.600,234.476 91.600 C 234.694 91.600,235.601 90.976,236.492 90.214 C 238.195 88.756,240.703 87.814,246.479 86.462 C 248.393 86.014,251.183 85.112,252.679 84.457 C 260.450 81.058,279.596 80.777,285.965 83.969 C 287.864 84.921,291.950 86.209,296.254 87.212 C 300.195 88.131,302.986 89.259,304.244 90.441 C 304.714 90.882,306.761 92.052,308.794 93.040 C 311.229 94.223,312.987 95.390,313.945 96.459 C 314.745 97.352,316.120 98.450,316.999 98.900 C 318.825 99.833,323.799 104.649,326.043 107.658 C 326.875 108.773,328.294 110.317,329.196 111.089 C 330.097 111.861,331.392 113.597,332.072 114.946 C 332.752 116.296,334.172 118.346,335.227 119.503 C 336.867 121.300,337.355 122.253,338.582 126.054 C 339.372 128.500,340.339 130.974,340.731 131.551 C 346.474 140.005,346.555 170.473,340.870 183.460 C 340.017 185.407,338.820 188.582,338.208 190.516 C 337.427 192.985,336.522 194.809,335.168 196.643 C 334.108 198.079,332.737 200.542,332.120 202.116 C 331.307 204.194,330.427 205.562,328.908 207.107 C 327.608 208.431,326.387 210.210,325.682 211.810 C 325.058 213.226,323.864 215.153,323.027 216.092 C 322.191 217.031,320.545 219.272,319.370 221.070 C 318.146 222.945,316.764 224.566,316.133 224.870 C 315.527 225.162,314.484 226.195,313.816 227.166 C 313.147 228.137,311.700 229.824,310.600 230.915 C 309.500 232.006,307.943 233.886,307.141 235.093 C 306.338 236.300,304.982 237.762,304.127 238.343 C 303.273 238.925,301.484 240.480,300.152 241.800 C 298.820 243.120,297.147 244.631,296.433 245.157 C 295.720 245.683,294.702 246.770,294.171 247.573 C 293.639 248.375,292.294 249.727,291.181 250.576 C 290.067 251.425,288.613 252.909,287.950 253.873 C 287.266 254.866,285.650 256.329,284.222 257.246 C 282.835 258.136,281.453 259.329,281.150 259.897 C 280.848 260.466,279.405 261.697,277.944 262.635 C 276.483 263.572,274.808 264.967,274.222 265.735 C 273.637 266.503,271.502 268.247,269.479 269.611 C 267.455 270.975,265.350 272.616,264.800 273.259 C 264.250 273.902,262.695 275.007,261.345 275.714 C 259.797 276.525,258.394 277.651,257.545 278.764 C 256.759 279.796,255.286 281.015,254.000 281.699 C 252.790 282.342,250.900 283.730,249.800 284.784 C 248.700 285.837,246.540 287.431,245.000 288.325 C 243.460 289.219,241.480 290.592,240.600 291.375 C 239.720 292.159,237.517 293.534,235.704 294.432 C 233.756 295.397,232.069 296.541,231.578 297.231 C 231.121 297.872,229.904 298.871,228.874 299.450 C 224.518 301.898,222.490 303.221,221.130 304.503 C 220.291 305.294,218.288 306.415,216.344 307.182 C 214.148 308.048,212.480 309.016,211.484 310.003 C 205.744 315.694,196.554 315.953,190.205 310.603 C 188.876 309.483,186.435 307.985,184.750 307.256 C 182.830 306.425,181.124 305.340,180.150 304.330 C 179.170 303.315,177.203 302.067,174.800 300.936 C 172.298 299.757,170.317 298.487,169.000 297.214 C 167.900 296.152,166.010 294.816,164.800 294.247 C 163.590 293.677,161.862 292.533,160.959 291.705 C 160.057 290.877,158.977 289.977,158.559 289.705 C 158.142 289.433,156.630 288.467,155.200 287.558 C 153.770 286.650,151.999 285.312,151.264 284.584 C 150.529 283.856,148.699 282.616,147.198 281.827 C 145.416 280.890,143.881 279.692,142.779 278.375 C 141.850 277.266,140.226 275.920,139.170 275.385 C 138.114 274.850,136.774 273.788,136.193 273.026 C 135.611 272.264,134.115 271.066,132.868 270.365 C 130.123 268.821,129.244 268.154,126.400 265.455 C 125.190 264.306,123.300 262.795,122.200 262.097 C 121.100 261.399,119.866 260.327,119.457 259.714 C 119.049 259.101,117.661 257.927,116.373 257.104 C 115.019 256.239,113.353 254.690,112.423 253.431 C 111.538 252.234,110.316 250.949,109.707 250.577 C 109.098 250.204,107.636 248.743,106.459 247.329 C 105.281 245.915,103.637 244.329,102.806 243.804 C 101.974 243.279,100.613 242.018,99.781 241.003 C 98.949 239.987,97.479 238.694,96.515 238.129 C 95.450 237.505,94.242 236.289,93.439 235.033 C 92.711 233.896,91.145 231.970,89.958 230.754 C 88.771 229.538,87.303 227.786,86.696 226.860 C 86.088 225.934,85.188 225.021,84.696 224.831 C 83.538 224.384,82.469 223.146,80.803 220.322 C 80.063 219.069,78.455 216.884,77.229 215.466 C 75.824 213.841,74.796 212.199,74.449 211.022 C 74.049 209.664,73.415 208.752,72.126 207.677 C 70.727 206.510,69.882 205.213,68.105 201.500 C 66.868 198.915,65.716 196.800,65.545 196.800 C 64.899 196.800,63.177 193.220,61.597 188.594 C 60.696 185.957,59.640 183.350,59.250 182.800 C 54.216 175.706,54.199 140.784,59.225 132.571 C 59.639 131.895,60.631 129.465,61.429 127.171 C 63.202 122.075,63.335 121.815,65.234 119.734 C 66.070 118.817,67.315 116.956,68.001 115.599 C 68.744 114.126,70.286 112.107,71.823 110.592 C 73.240 109.196,74.573 107.597,74.785 107.040 C 74.997 106.483,75.856 105.526,76.693 104.913 C 77.531 104.301,79.016 102.929,79.992 101.864 C 80.969 100.800,82.585 99.510,83.584 98.999 C 84.583 98.488,86.063 97.269,86.874 96.290 C 88.056 94.862,89.125 94.171,92.274 92.796 C 94.433 91.854,96.786 90.574,97.501 89.953 C 98.824 88.804,101.217 87.986,107.800 86.434 C 109.780 85.967,112.480 85.057,113.800 84.412 C 119.065 81.839,136.504 81.012,143.976 82.982 " stroke="none" fill="#522c5c" fill-rule="evenodd"></path><path id="path3" d="M126.858 84.828 C 125.687 85.297,116.040 87.318,108.639 88.645 C 102.773 89.697,101.773 90.063,99.034 92.153 C 98.097 92.868,96.176 93.865,94.765 94.367 C 93.354 94.869,91.696 95.468,91.080 95.697 C 90.464 95.926,89.420 96.899,88.759 97.859 C 88.084 98.840,86.828 99.978,85.891 100.455 C 83.460 101.696,81.994 102.861,81.382 104.039 C 81.086 104.610,79.751 105.870,78.417 106.839 C 76.852 107.975,75.706 109.183,75.187 110.245 C 74.744 111.150,73.487 112.645,72.393 113.567 C 71.294 114.494,70.288 115.726,70.145 116.322 C 69.721 118.083,68.154 120.930,67.033 121.976 C 65.307 123.586,64.078 126.090,63.026 130.139 C 61.999 134.091,60.891 136.694,59.879 137.534 C 57.939 139.145,56.911 157.021,58.028 169.731 C 58.462 174.671,58.655 175.296,61.009 179.371 C 61.637 180.458,62.715 183.584,63.413 186.343 C 64.577 190.940,64.833 191.525,66.588 193.586 C 68.375 195.685,71.153 201.292,71.186 202.866 C 71.194 203.233,71.887 204.077,72.727 204.742 C 73.712 205.522,74.785 207.025,75.746 208.970 C 76.655 210.809,77.765 212.390,78.587 213.017 C 79.946 214.054,82.559 217.766,83.819 220.448 C 84.213 221.288,85.403 222.546,86.656 223.448 C 87.994 224.411,89.118 225.625,89.616 226.645 C 90.057 227.550,91.272 229.010,92.315 229.889 C 93.358 230.769,94.659 232.369,95.206 233.444 C 95.983 234.973,96.657 235.645,98.297 236.524 C 99.787 237.323,100.702 238.173,101.459 239.465 C 102.208 240.742,103.010 241.494,104.162 241.996 C 106.139 242.859,108.284 245.039,108.467 246.370 C 108.560 247.049,109.141 247.624,110.400 248.286 C 112.579 249.432,113.431 250.244,114.556 252.249 C 115.122 253.259,116.156 254.193,117.596 254.998 C 118.797 255.668,120.323 256.961,120.989 257.870 C 121.655 258.779,122.592 259.630,123.072 259.762 C 123.552 259.894,124.182 260.226,124.472 260.501 C 124.762 260.775,125.720 261.537,126.600 262.193 C 127.480 262.849,129.224 264.326,130.476 265.474 C 131.728 266.622,133.653 268.019,134.754 268.577 C 135.855 269.135,137.081 270.070,137.478 270.656 C 138.741 272.517,140.548 274.089,142.281 274.833 C 143.388 275.309,144.314 276.114,144.995 277.193 C 145.564 278.094,146.518 279.029,147.115 279.272 C 150.490 280.644,152.444 281.765,154.026 283.235 C 155.932 285.005,158.663 286.999,160.600 288.034 C 161.260 288.387,162.160 289.225,162.600 289.897 C 163.144 290.729,164.551 291.676,167.000 292.860 C 169.456 294.047,170.851 294.987,171.390 295.818 C 171.965 296.705,173.255 297.519,176.145 298.818 C 178.361 299.814,180.571 301.112,181.155 301.760 C 183.294 304.136,184.012 304.677,185.685 305.177 C 188.146 305.912,190.051 306.953,191.624 308.422 C 196.962 313.408,203.545 313.347,209.798 308.253 C 210.996 307.277,213.232 305.999,214.767 305.413 C 216.698 304.675,218.087 303.808,219.279 302.596 C 220.242 301.616,222.584 300.023,224.600 298.977 C 226.743 297.864,228.716 296.505,229.476 295.618 C 230.343 294.606,231.752 293.701,233.876 292.793 C 235.681 292.021,237.396 290.977,237.937 290.318 C 238.844 289.216,242.908 286.377,245.435 285.081 C 246.114 284.732,247.153 283.813,247.745 283.037 C 248.435 282.132,249.857 281.135,251.718 280.252 C 253.882 279.225,254.868 278.486,255.610 277.338 C 256.276 276.306,257.366 275.419,258.921 274.644 C 260.305 273.953,261.823 272.775,262.688 271.719 C 263.485 270.746,265.337 269.174,266.804 268.225 C 268.270 267.277,270.010 265.983,270.671 265.350 C 273.926 262.232,275.347 261.095,276.803 260.443 C 277.686 260.048,278.918 259.005,279.578 258.094 C 280.230 257.194,281.803 255.849,283.074 255.107 C 284.659 254.181,285.637 253.273,286.192 252.212 C 287.001 250.664,289.652 248.400,290.653 248.400 C 290.947 248.400,291.637 247.511,292.187 246.425 C 293.163 244.500,294.606 243.156,296.957 241.982 C 297.593 241.664,298.517 240.773,299.009 240.002 C 300.108 238.281,301.419 237.080,303.000 236.347 C 303.722 236.012,304.608 235.035,305.224 233.897 C 306.376 231.766,308.196 229.719,309.230 229.390 C 309.610 229.270,310.374 228.233,310.928 227.086 C 311.642 225.609,312.522 224.591,313.942 223.600 C 315.045 222.830,316.173 221.677,316.449 221.037 C 317.313 219.028,320.712 214.075,321.524 213.641 C 322.451 213.145,324.605 209.822,324.942 208.369 C 325.170 207.382,325.945 206.434,328.080 204.527 C 328.617 204.046,329.285 202.876,329.563 201.927 C 330.375 199.150,332.726 194.517,333.723 193.728 C 335.159 192.591,335.905 190.934,337.023 186.400 C 338.138 181.878,339.065 179.475,340.442 177.541 C 343.544 173.185,343.587 141.790,340.496 137.298 C 339.029 135.166,338.012 132.779,337.178 129.515 C 336.025 124.999,334.970 122.836,333.163 121.281 C 332.101 120.368,331.355 119.210,330.737 117.515 C 330.186 116.005,329.327 114.595,328.493 113.834 C 325.582 111.175,324.800 110.290,324.800 109.653 C 324.800 109.289,323.809 108.201,322.598 107.234 C 321.386 106.268,319.755 104.696,318.973 103.741 C 318.190 102.786,316.706 101.528,315.675 100.946 C 314.644 100.365,312.900 98.950,311.800 97.802 C 310.299 96.236,309.252 95.543,307.600 95.020 C 305.561 94.374,300.877 91.857,300.386 91.143 C 299.889 90.419,296.950 89.573,290.866 88.400 C 287.304 87.714,282.197 86.533,279.516 85.776 C 273.038 83.947,267.294 83.837,261.529 85.431 C 259.478 85.998,256.900 86.710,255.800 87.013 C 254.700 87.315,251.730 87.927,249.200 88.371 C 242.995 89.462,240.762 90.177,239.155 91.590 C 238.410 92.245,235.640 93.709,233.000 94.841 C 230.360 95.974,228.134 97.076,228.054 97.289 C 227.647 98.370,225.427 100.349,223.250 101.573 C 221.907 102.328,220.704 103.274,220.576 103.675 C 220.149 105.020,218.312 106.831,216.382 107.809 C 214.896 108.562,214.363 109.101,213.992 110.224 C 213.422 111.953,211.515 114.217,209.946 115.028 C 209.288 115.368,208.703 116.074,208.552 116.707 C 207.186 122.457,191.600 122.056,191.600 116.271 C 191.600 115.938,190.966 115.274,190.191 114.795 C 188.565 113.790,187.069 111.920,186.521 110.211 C 186.257 109.385,185.480 108.634,183.979 107.752 C 182.523 106.897,181.353 105.784,180.396 104.342 C 179.357 102.775,178.455 101.953,177.035 101.279 C 175.023 100.324,174.011 99.380,172.982 97.500 C 172.650 96.895,172.183 96.400,171.943 96.400 C 170.858 96.400,162.861 92.669,161.645 91.595 C 160.056 90.192,157.825 89.468,151.800 88.400 C 149.380 87.971,146.050 87.253,144.400 86.806 C 136.499 84.662,135.080 84.400,131.475 84.425 C 129.454 84.439,127.376 84.620,126.858 84.828 M141.200 90.016 C 155.459 90.615,155.306 90.595,156.144 92.013 C 157.259 93.901,160.097 95.599,162.910 96.062 C 164.280 96.288,165.791 96.546,166.269 96.636 C 166.830 96.742,167.294 97.274,167.581 98.141 C 168.208 100.041,172.716 103.200,174.801 103.200 C 175.404 103.200,178.321 106.430,178.553 107.354 C 178.698 107.931,179.298 108.501,180.095 108.818 C 181.517 109.384,184.792 112.328,184.797 113.045 C 184.803 113.914,187.130 118.612,187.859 119.225 C 188.724 119.953,192.701 122.000,193.249 122.000 C 193.456 122.000,194.178 122.630,194.854 123.400 L 196.083 124.800 200.224 124.800 L 204.366 124.800 205.483 123.400 C 206.097 122.630,206.762 122.000,206.960 122.000 C 207.540 122.000,211.732 119.921,212.541 119.232 C 213.235 118.642,215.600 113.922,215.600 113.129 C 215.600 112.474,218.972 109.454,220.500 108.740 C 221.325 108.354,222.000 107.794,222.000 107.495 C 222.000 107.195,222.549 106.545,223.220 106.048 C 223.891 105.552,224.607 104.708,224.810 104.173 C 225.014 103.638,225.505 103.200,225.901 103.200 C 226.298 103.200,226.977 102.957,227.411 102.660 C 227.845 102.363,228.740 101.990,229.400 101.831 C 231.054 101.434,232.741 99.722,233.038 98.140 C 233.253 96.993,233.475 96.791,234.743 96.596 C 241.166 95.607,243.325 94.671,244.586 92.327 C 245.507 90.614,246.223 90.400,251.037 90.400 C 252.872 90.400,257.574 90.200,261.487 89.956 C 266.732 89.628,271.279 89.630,278.800 89.964 C 294.671 90.668,293.589 90.476,296.297 93.065 C 298.954 95.605,299.160 95.703,303.290 96.393 C 305.617 96.782,306.523 97.118,306.959 97.755 C 309.093 100.867,311.582 102.796,313.474 102.805 C 315.846 102.817,316.290 103.149,316.507 105.075 C 316.772 107.421,317.512 108.110,320.304 108.611 L 322.593 109.022 322.867 110.936 C 323.317 114.085,324.799 115.600,327.426 115.600 C 328.288 115.600,328.400 115.776,328.400 117.127 C 328.400 121.809,330.238 125.567,333.056 126.643 C 335.082 127.416,335.057 127.347,335.388 133.200 C 335.771 139.977,336.931 142.913,339.759 144.261 L 341.089 144.895 341.373 151.471 C 341.529 155.088,341.528 160.757,341.371 164.069 L 341.084 170.090 339.693 171.345 C 335.910 174.760,335.850 174.906,335.219 182.290 L 334.801 187.180 332.185 189.771 C 329.643 192.288,329.552 192.448,328.977 195.455 C 328.304 198.971,328.482 198.642,326.756 199.568 C 326.033 199.956,325.310 200.526,325.149 200.836 C 323.999 203.054,323.130 205.363,322.954 206.667 C 322.524 209.865,322.495 209.914,320.813 210.198 C 318.733 210.549,317.324 211.698,317.002 213.305 C 316.460 216.014,315.932 217.200,315.269 217.201 C 314.009 217.204,311.990 218.794,311.337 220.297 C 309.865 223.685,309.385 224.397,308.323 224.767 C 307.715 224.979,306.860 225.748,306.423 226.476 C 305.986 227.204,305.172 228.298,304.614 228.907 C 304.056 229.516,303.600 230.342,303.600 230.743 C 303.600 231.144,303.142 231.680,302.581 231.936 C 302.021 232.191,301.278 232.895,300.930 233.500 C 300.582 234.105,299.736 234.870,299.051 235.200 C 298.365 235.530,297.613 236.160,297.381 236.600 C 296.843 237.618,293.327 241.200,292.865 241.200 C 292.303 241.200,289.976 243.307,285.883 247.522 C 285.178 248.249,283.941 249.189,283.135 249.612 C 282.258 250.072,281.295 251.061,280.733 252.080 C 280.017 253.379,279.251 254.050,277.490 254.922 C 275.692 255.812,274.997 256.430,274.334 257.730 C 273.298 259.761,272.661 260.256,270.678 260.573 C 268.687 260.891,267.285 262.325,266.957 264.378 C 266.743 265.717,266.507 266.053,265.648 266.246 C 261.217 267.238,260.303 267.946,259.858 270.730 C 259.615 272.246,259.550 272.300,257.451 272.721 C 255.135 273.186,251.315 275.690,250.447 277.312 C 250.122 277.920,249.026 278.510,246.974 279.182 C 243.658 280.268,242.890 280.906,242.002 283.310 C 241.451 284.800,241.229 284.979,239.400 285.396 C 235.989 286.173,234.800 287.409,234.800 290.176 C 234.800 290.955,234.480 291.072,231.300 291.453 C 226.278 292.056,225.063 292.671,224.178 295.059 C 223.782 296.127,223.418 297.057,223.369 297.127 C 223.320 297.196,222.065 297.508,220.581 297.818 C 217.432 298.477,216.513 299.170,216.156 301.155 C 215.797 303.149,215.334 303.600,213.642 303.600 C 209.319 303.600,205.496 305.519,204.731 308.074 C 204.181 309.909,203.698 310.083,199.605 309.919 L 196.620 309.800 195.964 308.000 C 195.155 305.778,193.760 304.773,190.476 304.047 C 187.961 303.492,187.542 303.179,183.687 298.988 C 183.114 298.365,180.694 297.606,179.274 297.602 C 177.800 297.599,176.925 296.925,176.658 295.588 C 176.129 292.947,172.683 291.200,167.999 291.200 C 166.855 291.200,165.600 290.131,165.600 289.157 C 165.600 287.067,163.252 285.200,160.625 285.200 C 158.828 285.200,158.400 284.804,158.400 283.139 C 158.400 281.169,157.120 279.771,154.945 279.364 C 152.466 278.901,151.294 278.256,150.316 276.820 C 149.812 276.080,149.130 275.352,148.800 275.201 C 147.850 274.766,146.995 274.259,145.833 273.439 C 145.240 273.021,143.886 272.595,142.824 272.493 L 140.894 272.307 140.691 270.507 C 140.412 268.034,139.206 266.908,136.408 266.506 C 134.433 266.222,134.180 266.073,133.854 264.996 C 132.735 261.298,132.510 261.066,129.266 260.255 C 127.655 259.852,127.332 259.574,126.424 257.807 C 125.860 256.710,124.951 255.610,124.400 255.358 C 120.789 253.707,120.432 253.456,120.201 252.404 C 119.926 251.155,118.231 249.420,116.887 249.014 C 115.696 248.654,114.396 247.290,113.399 245.355 C 112.887 244.360,112.029 243.513,111.012 243.001 C 110.140 242.560,109.182 241.975,108.884 241.700 C 108.587 241.425,108.209 241.200,108.046 241.200 C 107.882 241.200,107.443 240.561,107.071 239.779 C 106.698 238.998,105.830 238.053,105.141 237.679 C 104.452 237.306,103.434 236.505,102.878 235.900 C 102.322 235.295,101.668 234.800,101.425 234.800 C 101.181 234.800,100.653 234.188,100.250 233.441 C 99.847 232.693,98.907 231.753,98.159 231.350 C 97.412 230.947,96.800 230.423,96.800 230.184 C 96.800 229.946,96.462 229.388,96.049 228.945 C 95.636 228.501,95.165 227.702,95.002 227.169 C 94.574 225.770,93.686 224.890,92.208 224.403 C 90.926 223.979,90.570 223.472,89.049 219.896 C 88.591 218.820,87.980 218.208,86.904 217.747 C 86.077 217.393,85.130 216.970,84.800 216.808 C 84.470 216.646,84.004 215.629,83.764 214.549 C 83.014 211.175,81.725 210.012,78.725 210.002 C 78.220 210.001,77.988 209.520,77.807 208.100 C 77.290 204.034,74.914 199.516,73.048 199.048 C 72.026 198.791,71.878 198.411,71.375 194.736 C 71.090 192.652,68.721 189.112,66.785 187.877 C 65.841 187.275,65.618 186.808,65.448 185.077 C 64.540 175.848,63.790 172.800,62.429 172.800 C 62.260 172.800,61.491 172.187,60.719 171.437 L 59.316 170.074 59.028 164.392 C 58.869 161.267,58.867 155.685,59.024 151.987 L 59.308 145.264 60.740 144.332 C 63.800 142.341,65.165 138.320,65.198 131.200 C 65.215 127.648,65.262 127.561,67.668 126.659 C 70.374 125.644,71.320 123.776,71.930 118.245 C 72.176 116.021,72.290 115.789,73.200 115.681 C 76.192 115.327,77.153 114.299,77.552 111.028 L 77.800 109.000 80.308 108.664 C 83.061 108.295,83.616 107.733,84.152 104.770 C 84.403 103.377,84.476 103.327,86.894 102.877 C 89.229 102.443,94.000 98.644,94.000 97.219 C 94.000 97.049,95.395 96.687,97.100 96.414 C 100.958 95.797,102.646 95.115,102.988 94.037 C 103.134 93.576,103.377 93.199,103.527 93.198 C 103.677 93.197,104.392 92.641,105.117 91.962 L 106.433 90.729 114.917 90.369 C 119.582 90.171,124.390 89.951,125.600 89.879 C 126.810 89.807,128.520 89.712,129.400 89.667 C 130.280 89.623,135.590 89.780,141.200 90.016 " stroke="none" fill="#e40c50" fill-rule="evenodd"></path><path id="path4" d="M128.600 82.041 C 120.577 82.364,116.729 82.980,113.800 84.412 C 112.480 85.057,109.780 85.967,107.800 86.434 C 101.217 87.986,98.824 88.804,97.501 89.953 C 96.786 90.574,94.433 91.854,92.274 92.796 C 89.125 94.171,88.056 94.862,86.874 96.290 C 86.063 97.269,84.583 98.488,83.584 98.999 C 82.585 99.510,80.969 100.800,79.992 101.864 C 79.016 102.929,77.531 104.301,76.693 104.913 C 75.856 105.526,74.997 106.483,74.785 107.040 C 74.573 107.597,73.240 109.196,71.823 110.592 C 70.286 112.107,68.744 114.126,68.001 115.599 C 67.315 116.956,66.070 118.817,65.234 119.734 C 63.335 121.815,63.202 122.075,61.429 127.171 C 60.631 129.465,59.639 131.895,59.225 132.571 C 54.199 140.784,54.216 175.706,59.250 182.800 C 59.640 183.350,60.696 185.957,61.597 188.594 C 63.177 193.220,64.899 196.800,65.545 196.800 C 65.716 196.800,66.868 198.915,68.105 201.500 C 69.882 205.213,70.727 206.510,72.126 207.677 C 73.415 208.752,74.049 209.664,74.449 211.022 C 74.796 212.199,75.824 213.841,77.229 215.466 C 78.455 216.884,80.063 219.069,80.803 220.322 C 82.469 223.146,83.538 224.384,84.696 224.831 C 85.188 225.021,86.088 225.934,86.696 226.860 C 87.303 227.786,88.771 229.538,89.958 230.754 C 91.145 231.970,92.711 233.896,93.439 235.033 C 94.242 236.289,95.450 237.505,96.515 238.129 C 97.479 238.694,98.949 239.987,99.781 241.003 C 100.613 242.018,101.974 243.279,102.806 243.804 C 103.637 244.329,105.281 245.915,106.459 247.329 C 107.636 248.743,109.098 250.204,109.707 250.577 C 110.316 250.949,111.538 252.234,112.423 253.431 C 113.353 254.690,115.019 256.239,116.373 257.104 C 117.661 257.927,119.049 259.101,119.457 259.714 C 119.866 260.327,121.100 261.399,122.200 262.097 C 123.300 262.795,125.190 264.306,126.400 265.455 C 129.244 268.154,130.123 268.821,132.868 270.365 C 134.115 271.066,135.611 272.264,136.193 273.026 C 136.774 273.788,138.114 274.850,139.170 275.385 C 140.226 275.920,141.850 277.266,142.779 278.375 C 143.881 279.692,145.416 280.890,147.198 281.827 C 148.699 282.616,150.529 283.856,151.264 284.584 C 151.999 285.312,153.770 286.650,155.200 287.558 C 156.630 288.467,158.142 289.433,158.559 289.705 C 158.977 289.977,160.057 290.877,160.959 291.705 C 161.862 292.533,163.590 293.677,164.800 294.247 C 166.010 294.816,167.900 296.152,169.000 297.214 C 170.317 298.487,172.298 299.757,174.800 300.936 C 177.203 302.067,179.170 303.315,180.150 304.330 C 181.124 305.340,182.830 306.425,184.750 307.256 C 186.435 307.985,188.876 309.483,190.205 310.603 C 196.554 315.953,205.744 315.694,211.484 310.003 C 212.480 309.016,214.148 308.048,216.344 307.182 C 218.288 306.415,220.291 305.294,221.130 304.503 C 222.490 303.221,224.518 301.898,228.874 299.450 C 229.904 298.871,231.121 297.872,231.578 297.231 C 232.069 296.541,233.756 295.397,235.704 294.432 C 237.517 293.534,239.720 292.159,240.600 291.375 C 241.480 290.592,243.460 289.219,245.000 288.325 C 246.540 287.431,248.700 285.837,249.800 284.784 C 250.900 283.730,252.790 282.342,254.000 281.699 C 255.286 281.015,256.759 279.796,257.545 278.764 C 258.394 277.651,259.797 276.525,261.345 275.714 C 262.695 275.007,264.250 273.902,264.800 273.259 C 265.350 272.616,267.455 270.975,269.479 269.611 C 271.502 268.247,273.637 266.503,274.222 265.735 C 274.808 264.967,276.483 263.572,277.944 262.635 C 279.405 261.697,280.848 260.466,281.150 259.897 C 281.453 259.329,282.835 258.136,284.222 257.246 C 285.650 256.329,287.266 254.866,287.950 253.873 C 288.613 252.909,290.067 251.425,291.181 250.576 C 292.294 249.727,293.639 248.375,294.171 247.573 C 294.702 246.770,295.720 245.683,296.433 245.157 C 297.147 244.631,298.820 243.120,300.152 241.800 C 301.484 240.480,303.273 238.925,304.127 238.343 C 304.982 237.762,306.338 236.300,307.141 235.093 C 307.943 233.886,309.500 232.006,310.600 230.915 C 311.700 229.824,313.147 228.137,313.816 227.166 C 314.484 226.195,315.527 225.162,316.133 224.870 C 316.764 224.566,318.146 222.945,319.370 221.070 C 320.545 219.272,322.191 217.031,323.027 216.092 C 323.864 215.153,325.058 213.226,325.682 211.810 C 326.387 210.210,327.608 208.431,328.908 207.107 C 330.427 205.562,331.307 204.194,332.120 202.116 C 332.737 200.542,334.108 198.079,335.168 196.643 C 336.522 194.809,337.427 192.985,338.208 190.516 C 338.820 188.582,340.017 185.407,340.870 183.460 C 346.555 170.473,346.474 140.005,340.731 131.551 C 340.339 130.974,339.372 128.500,338.582 126.054 C 337.355 122.253,336.867 121.300,335.227 119.503 C 334.172 118.346,332.752 116.296,332.072 114.946 C 331.392 113.597,330.097 111.861,329.196 111.089 C 328.294 110.317,326.875 108.773,326.043 107.658 C 323.799 104.649,318.825 99.833,316.999 98.900 C 316.120 98.450,314.745 97.352,313.945 96.459 C 312.987 95.390,311.229 94.223,308.794 93.040 C 306.761 92.052,304.714 90.882,304.244 90.441 C 302.986 89.259,300.195 88.131,296.254 87.212 C 291.950 86.209,287.864 84.921,285.965 83.969 C 279.596 80.777,260.450 81.058,252.679 84.457 C 251.183 85.112,248.393 86.014,246.479 86.462 C 240.703 87.814,238.195 88.756,236.492 90.214 C 235.601 90.976,234.694 91.600,234.476 91.600 C 232.535 91.600,224.800 96.232,224.800 97.394 C 224.800 97.639,224.044 98.280,223.120 98.820 C 222.195 99.359,219.965 101.285,218.163 103.100 C 216.361 104.915,214.696 106.400,214.464 106.400 C 214.231 106.400,213.207 107.569,212.187 108.997 C 211.168 110.425,209.936 111.910,209.450 112.297 C 208.963 112.684,207.989 113.841,207.284 114.870 C 203.879 119.840,195.982 120.057,193.407 115.252 C 193.097 114.674,191.844 113.157,190.622 111.882 C 189.400 110.606,188.400 109.363,188.400 109.119 C 188.400 108.629,185.918 106.212,184.244 105.072 C 183.655 104.671,182.722 103.627,182.169 102.752 C 181.617 101.876,180.318 100.642,179.282 100.009 C 176.423 98.261,175.174 97.185,174.770 96.121 C 174.434 95.236,167.641 91.600,166.325 91.600 C 166.094 91.600,165.265 91.037,164.482 90.350 C 162.624 88.719,161.483 88.269,155.078 86.641 C 152.136 85.894,149.014 84.918,148.141 84.472 C 144.052 82.386,138.184 81.656,128.600 82.041 M138.275 85.196 C 139.994 85.633,142.750 86.358,144.400 86.806 C 146.050 87.253,149.380 87.971,151.800 88.400 C 157.825 89.468,160.056 90.192,161.645 91.595 C 162.861 92.669,170.858 96.400,171.943 96.400 C 172.183 96.400,172.650 96.895,172.982 97.500 C 174.011 99.380,175.023 100.324,177.035 101.279 C 178.455 101.953,179.357 102.775,180.396 104.342 C 181.353 105.784,182.523 106.897,183.979 107.752 C 185.480 108.634,186.257 109.385,186.521 110.211 C 187.069 111.920,188.565 113.790,190.191 114.795 C 190.966 115.274,191.600 115.938,191.600 116.271 C 191.600 122.056,207.186 122.457,208.552 116.707 C 208.703 116.074,209.288 115.368,209.946 115.028 C 211.515 114.217,213.422 111.953,213.992 110.224 C 214.363 109.101,214.896 108.562,216.382 107.809 C 218.312 106.831,220.149 105.020,220.576 103.675 C 220.704 103.274,221.907 102.328,223.250 101.573 C 225.427 100.349,227.647 98.370,228.054 97.289 C 228.134 97.076,230.360 95.974,233.000 94.841 C 235.640 93.709,238.410 92.245,239.155 91.590 C 240.762 90.177,242.995 89.462,249.200 88.371 C 251.730 87.927,254.700 87.315,255.800 87.013 C 256.900 86.710,259.478 85.998,261.529 85.431 C 267.294 83.837,273.038 83.947,279.516 85.776 C 282.197 86.533,287.304 87.714,290.866 88.400 C 296.950 89.573,299.889 90.419,300.386 91.143 C 300.877 91.857,305.561 94.374,307.600 95.020 C 309.252 95.543,310.299 96.236,311.800 97.802 C 312.900 98.950,314.644 100.365,315.675 100.946 C 316.706 101.528,318.190 102.786,318.973 103.741 C 319.755 104.696,321.386 106.268,322.598 107.234 C 323.809 108.201,324.800 109.289,324.800 109.653 C 324.800 110.290,325.582 111.175,328.493 113.834 C 329.327 114.595,330.186 116.005,330.737 117.515 C 331.355 119.210,332.101 120.368,333.163 121.281 C 334.970 122.836,336.025 124.999,337.178 129.515 C 338.012 132.779,339.029 135.166,340.496 137.298 C 343.587 141.790,343.544 173.185,340.442 177.541 C 339.065 179.475,338.138 181.878,337.023 186.400 C 335.905 190.934,335.159 192.591,333.723 193.728 C 332.726 194.517,330.375 199.150,329.563 201.927 C 329.285 202.876,328.617 204.046,328.080 204.527 C 325.945 206.434,325.170 207.382,324.942 208.369 C 324.605 209.822,322.451 213.145,321.524 213.641 C 320.712 214.075,317.313 219.028,316.449 221.037 C 316.173 221.677,315.045 222.830,313.942 223.600 C 312.522 224.591,311.642 225.609,310.928 227.086 C 310.374 228.233,309.610 229.270,309.230 229.390 C 308.196 229.719,306.376 231.766,305.224 233.897 C 304.608 235.035,303.722 236.012,303.000 236.347 C 301.419 237.080,300.108 238.281,299.009 240.002 C 298.517 240.773,297.593 241.664,296.957 241.982 C 294.606 243.156,293.163 244.500,292.187 246.425 C 291.637 247.511,290.947 248.400,290.653 248.400 C 289.652 248.400,287.001 250.664,286.192 252.212 C 285.637 253.273,284.659 254.181,283.074 255.107 C 281.803 255.849,280.230 257.194,279.578 258.094 C 278.918 259.005,277.686 260.048,276.803 260.443 C 275.347 261.095,273.926 262.232,270.671 265.350 C 270.010 265.983,268.270 267.277,266.804 268.225 C 265.337 269.174,263.485 270.746,262.688 271.719 C 261.823 272.775,260.305 273.953,258.921 274.644 C 257.366 275.419,256.276 276.306,255.610 277.338 C 254.868 278.486,253.882 279.225,251.718 280.252 C 249.857 281.135,248.435 282.132,247.745 283.037 C 247.153 283.813,246.114 284.732,245.435 285.081 C 242.908 286.377,238.844 289.216,237.937 290.318 C 237.396 290.977,235.681 292.021,233.876 292.793 C 231.752 293.701,230.343 294.606,229.476 295.618 C 228.716 296.505,226.743 297.864,224.600 298.977 C 222.584 300.023,220.242 301.616,219.279 302.596 C 218.087 303.808,216.698 304.675,214.767 305.413 C 213.232 305.999,210.996 307.277,209.798 308.253 C 203.545 313.347,196.962 313.408,191.624 308.422 C 190.051 306.953,188.146 305.912,185.685 305.177 C 184.012 304.677,183.294 304.136,181.155 301.760 C 180.571 301.112,178.361 299.814,176.145 298.818 C 173.255 297.519,171.965 296.705,171.390 295.818 C 170.851 294.987,169.456 294.047,167.000 292.860 C 164.551 291.676,163.144 290.729,162.600 289.897 C 162.160 289.225,161.260 288.387,160.600 288.034 C 158.663 286.999,155.932 285.005,154.026 283.235 C 152.444 281.765,150.490 280.644,147.115 279.272 C 146.518 279.029,145.564 278.094,144.995 277.193 C 144.314 276.114,143.388 275.309,142.281 274.833 C 140.548 274.089,138.741 272.517,137.478 270.656 C 137.081 270.070,135.855 269.135,134.754 268.577 C 133.653 268.019,131.728 266.622,130.476 265.474 C 129.224 264.326,127.480 262.849,126.600 262.193 C 125.720 261.537,124.762 260.775,124.472 260.501 C 124.182 260.226,123.552 259.894,123.072 259.762 C 122.592 259.630,121.655 258.779,120.989 257.870 C 120.323 256.961,118.797 255.668,117.596 254.998 C 116.156 254.193,115.122 253.259,114.556 252.249 C 113.431 250.244,112.579 249.432,110.400 248.286 C 109.141 247.624,108.560 247.049,108.467 246.370 C 108.284 245.039,106.139 242.859,104.162 241.996 C 103.010 241.494,102.208 240.742,101.459 239.465 C 100.702 238.173,99.787 237.323,98.297 236.524 C 96.657 235.645,95.983 234.973,95.206 233.444 C 94.659 232.369,93.358 230.769,92.315 229.889 C 91.272 229.010,90.057 227.550,89.616 226.645 C 89.118 225.625,87.994 224.411,86.656 223.448 C 85.403 222.546,84.213 221.288,83.819 220.448 C 82.559 217.766,79.946 214.054,78.587 213.017 C 77.765 212.390,76.655 210.809,75.746 208.970 C 74.785 207.025,73.712 205.522,72.727 204.742 C 71.887 204.077,71.194 203.233,71.186 202.866 C 71.153 201.292,68.375 195.685,66.588 193.586 C 64.833 191.525,64.577 190.940,63.413 186.343 C 62.715 183.584,61.637 180.458,61.009 179.371 C 58.655 175.296,58.462 174.671,58.028 169.731 C 56.911 157.021,57.939 139.145,59.879 137.534 C 60.891 136.694,61.999 134.091,63.026 130.139 C 64.078 126.090,65.307 123.586,67.033 121.976 C 68.154 120.930,69.721 118.083,70.145 116.322 C 70.288 115.726,71.294 114.494,72.393 113.567 C 73.487 112.645,74.744 111.150,75.187 110.245 C 75.706 109.183,76.852 107.975,78.417 106.839 C 79.751 105.870,81.086 104.610,81.382 104.039 C 81.994 102.861,83.460 101.696,85.891 100.455 C 86.828 99.978,88.084 98.840,88.759 97.859 C 89.420 96.899,90.464 95.926,91.080 95.697 C 91.696 95.468,93.354 94.869,94.765 94.367 C 96.176 93.865,98.097 92.868,99.034 92.153 C 101.773 90.063,102.773 89.697,108.639 88.645 C 116.040 87.318,125.687 85.297,126.858 84.828 C 128.577 84.140,134.931 84.344,138.275 85.196 " stroke="none" fill="#841c5c" fill-rule="evenodd"></path></g></svg>